#N canvas 427 136 1069 655 12;
#X obj 428 448 glitch~, f 16;
#X floatatom 553 387 5 0 0 0 - - - 0;
#X obj 629 347 tgl 25 0 empty empty empty 17 7 0 10 #e4e4e4 #4d4d4d #373737 0 1;
#X floatatom 629 387 5 0 0 0 - - - 0;
#X obj 428 576 dac~;
#X text 676 384 Glitch On/Off;
#X text 463 384 Glitch Delay;
#X text 428 167 Sample Loop;
#N canvas 63 101 450 300 sample_loop 0;
#X obj 274 299 readsf~;
#X obj 308 180 bng 25 250 50 0 empty empty empty 17 7 0 10 #e4e4e4 #4d4d4d #373737;
#X obj 328 373 bng 25 250 50 0 empty empty empty 17 7 0 10 #e4e4e4 #4d4d4d #373737;
#X obj 488 206 tgl 21 0 empty empty empty 0 -11 0 12 #fcfcfc #000000 #000000 0 1;
#X obj 388 378 spigot;
#X obj 421 185 sel 1;
#X obj 525 159 inlet;
#X obj 274 452 outlet~;
#X msg 449 402 1 5;
#X msg 525 402 0 5;
#X obj 493 340 sel 1;
#X obj 551 337 sel 0;
#X obj 274 413 *~;
#X obj 432 477 line~;
#X msg 122 249 open Examples/breakbeat.wav \, 1;
#X connect 0 0 12 0;
#X connect 0 1 2 0;
#X connect 1 0 14 0;
#X connect 2 0 4 0;
#X connect 3 0 5 0;
#X connect 3 0 4 1;
#X connect 3 0 10 0;
#X connect 3 0 11 0;
#X connect 4 0 1 0;
#X connect 5 0 1 0;
#X connect 6 0 3 0;
#X connect 8 0 13 0;
#X connect 9 0 13 0;
#X connect 10 0 8 0;
#X connect 11 0 9 0;
#X connect 12 0 7 0;
#X connect 13 0 12 1;
#X connect 14 0 0 0;
#X restore 428 263 pd sample_loop;
#X obj 429 213 tgl 25 0 empty empty empty 17 7 0 10 #e4e4e4 #4d4d4d #373737 0 1;
#X text 484 575 Audio Output;
#X text 294 448 Audio Signal Inlet;
#X text 11 119 Basic example of using glitch~ with a typic breakbeat/jungle sample loop;
#X connect 0 0 4 0;
#X connect 0 0 4 1;
#X connect 1 0 0 1;
#X connect 2 0 3 0;
#X connect 3 0 0 2;
#X connect 8 0 0 0;
#X connect 9 0 8 0;
