#N canvas 547 304 685 632 12;
#X obj 813 938 *~ 1, f 5;
#X msg 1072 762 0 50, f 8;
#X msg 1008 823 1 50, f 6;
#X obj 1209 987 line~;
#X obj 1074 1055 *~, f 5;
#X floatatom 878 804 3 0 0 0 - - - 12;
#X obj 652 1165 *~ 1, f 5;
#X obj 799 1344 *~ 0.6, f 5;
#X obj 974 496 tgl 51 0 empty empty empty 17 7 0 10 #e4e4e4 #4d4d4d #373737 0 1;
#X obj 1008 644 sel 0;
#X obj 992 602 sel 1;
#X obj 749 739 *~, f 5;
#X msg 861 729 0;
#X msg 903 739 1;
#X obj 1026 321 inlet, f 10;
#X obj 799 1471 outlet~, f 6;
#X obj 542 440 inlet~, f 8;
#X obj 836 276 inlet, f 10;
#X text 1026 523 Glitch On/Off toggle, f 21;
#X text 706 535 Glitched Sequence Time, f 21;
#X text 637 937 Audio Buffers, f 21;
#X text 472 578 Signal Entry, f 21;
#X text 274 341 glitch~ is an abstraction created by izecake on 16/07/24. It allows you to recreate the sonority of IDM/glitchcore artists like Autechre or Squarepusher by using recursive audio buffers. Hope you will enjoy it :p;
#X obj 806 1117 delwrite~ \$0glitch 500, f 16;
#X obj 904 886 delread~ \$0glitch 50, f 15;
#X connect 0 0 6 0;
#X connect 0 0 23 0;
#X connect 1 0 3 0;
#X connect 2 0 3 0;
#X connect 3 0 4 1;
#X connect 4 0 7 0;
#X connect 4 0 23 0;
#X connect 5 0 24 0;
#X connect 6 0 7 0;
#X connect 7 0 15 0;
#X connect 8 0 9 0;
#X connect 8 0 10 0;
#X connect 9 0 1 0;
#X connect 9 0 13 0;
#X connect 10 0 2 0;
#X connect 10 0 12 0;
#X connect 11 0 0 0;
#X connect 12 0 11 1;
#X connect 13 0 11 1;
#X connect 14 0 8 0;
#X connect 16 0 11 0;
#X connect 17 0 5 0;
#X connect 24 0 4 0;
